<svg width="72" height="72" viewBox="0 0 72 72" fill="none" xmlns="http://www.w3.org/2000/svg">
<circle cx="51" cy="28.2814" r="18" fill="url(#paint0_linear_59_27029)"/>
<path fill-rule="evenodd" clip-rule="evenodd" d="M13.5 68.7814H34.5H36H55.5C64.6127 68.7814 72 61.3941 72 52.2814C72 43.1687 64.6127 35.7814 55.5 35.7814C55.1382 35.7814 54.7791 35.793 54.4231 35.816C50.6566 28.6604 43.1481 23.7814 34.5 23.7814C23.6003 23.7814 14.5107 31.5318 12.4418 41.8222C5.48057 42.362 0 48.1816 0 55.2814C0 62.7372 6.04416 68.7814 13.5 68.7814Z" fill="#E7F1FF"/>
<path fill-rule="evenodd" clip-rule="evenodd" d="M13.5 68.7814H34.5H36H55.5C64.6127 68.7814 72 61.3941 72 52.2814C72 43.1687 64.6127 35.7814 55.5 35.7814C55.1382 35.7814 54.7791 35.793 54.4231 35.816C50.6566 28.6604 43.1481 23.7814 34.5 23.7814C23.6003 23.7814 14.5107 31.5318 12.4418 41.8222C5.48057 42.362 0 48.1816 0 55.2814C0 62.7372 6.04416 68.7814 13.5 68.7814Z" fill="url(#paint1_linear_59_27029)"/>
<path fill-rule="evenodd" clip-rule="evenodd" d="M13.5 68.7814H34.5H36H55.5C64.6127 68.7814 72 61.3941 72 52.2814C72 43.1687 64.6127 35.7814 55.5 35.7814C55.1382 35.7814 54.7791 35.793 54.4231 35.816C50.6566 28.6604 43.1481 23.7814 34.5 23.7814C23.6003 23.7814 14.5107 31.5318 12.4418 41.8222C5.48057 42.362 0 48.1816 0 55.2814C0 62.7372 6.04416 68.7814 13.5 68.7814Z" fill="url(#paint2_linear_59_27029)"/>
<path d="M0 55.2814C0 47.8255 6.04416 41.7814 13.5 41.7814H18C27.9411 41.7814 36 49.8402 36 59.7814V68.7814H13.5C6.04416 68.7814 0 62.7372 0 55.2814Z" fill="url(#paint3_radial_59_27029)"/>
<path d="M12 46.2814C12 33.855 22.0736 23.7814 34.5 23.7814C46.9264 23.7814 57 33.855 57 46.2814C57 58.7078 46.9264 68.7814 34.5 68.7814C22.0736 68.7814 12 58.7078 12 46.2814Z" fill="url(#paint4_radial_59_27029)"/>
<circle cx="55.5" cy="52.2814" r="16.5" fill="url(#paint5_radial_59_27029)"/>
<defs>
<linearGradient id="paint0_linear_59_27029" x1="59.1" y1="36.0814" x2="29.7478" y2="0.256934" gradientUnits="userSpaceOnUse">
<stop stop-color="#EF6D0F"/>
<stop offset="0.56298" stop-color="#EEB82E"/>
<stop offset="1" stop-color="#FEB649" stop-opacity="0.78"/>
</linearGradient>
<linearGradient id="paint1_linear_59_27029" x1="22.5" y1="34.2814" x2="36" y2="68.7814" gradientUnits="userSpaceOnUse">
<stop stop-color="#C6D8F5"/>
<stop offset="1" stop-color="#89AFD1" stop-opacity="0"/>
</linearGradient>
<linearGradient id="paint2_linear_59_27029" x1="32.0998" y1="70.3739" x2="31.1538" y2="23.7814" gradientUnits="userSpaceOnUse">
<stop stop-color="#547DDA"/>
<stop offset="0.257422" stop-color="#93C2FF" stop-opacity="0"/>
</linearGradient>
<radialGradient id="paint3_radial_59_27029" cx="0" cy="0" r="1" gradientUnits="userSpaceOnUse" gradientTransform="translate(19.5 68.7814) rotate(-127.875) scale(28.5044 32.9871)">
<stop offset="0.683784" stop-color="#8FABDD" stop-opacity="0"/>
<stop offset="1" stop-color="#5582D3"/>
</radialGradient>
<radialGradient id="paint4_radial_59_27029" cx="0" cy="0" r="1" gradientUnits="userSpaceOnUse" gradientTransform="translate(34.5 64.2814) rotate(-90) scale(40.5)">
<stop offset="0.598765" stop-color="#C7DFFF" stop-opacity="0"/>
<stop offset="1" stop-color="#6B97E6"/>
</radialGradient>
<radialGradient id="paint5_radial_59_27029" cx="0" cy="0" r="1" gradientUnits="userSpaceOnUse" gradientTransform="translate(46.7 64.3814) rotate(-56.3099) scale(31.7288)">
<stop offset="0.47771" stop-color="#8FABDD" stop-opacity="0"/>
<stop offset="1" stop-color="#5582D3"/>
</radialGradient>
</defs>
</svg>
